<svg xmlns="http://www.w3.org/2000/svg" width="1000" height="850" viewBox="0 0 1000 850">
<rect width="100%" height="100%" fill="none"/><g transform="translate(50 25) scale(0.78 0.78)">
    <defs><radialGradient id="blob" cx="34%" cy="28%"><stop offset="0" stop-color="#c8ffe7"/><stop offset=".55" stop-color="#77e2b3"/><stop offset="1" stop-color="#4dbb96"/></radialGradient></defs>
    <path d="M250 150 C340 72 490 88 552 170 C632 275 588 365 632 450 C678 540 607 650 492 676 C395 698 325 640 240 650 C135 663 68 573 94 474 C118 383 66 315 122 230 C156 178 202 188 250 150Z" fill="url(#blob)" stroke="#26173f" stroke-width="18"/>
    <circle cx="282" cy="318" r="20" fill="#26173f"/><circle cx="440" cy="306" r="20" fill="#26173f"/>
    <path d="M310 408 Q360 452 424 396" fill="none" stroke="#26173f" stroke-width="17" stroke-linecap="round"/>
    <ellipse cx="210" cy="228" rx="82" ry="42" fill="#fff" opacity=".18" transform="rotate(-28 210 228)"/>
    </g><g transform="translate(650 420)"><circle r="110" fill="#ff8cca" stroke="#26173f" stroke-width="18"/><text y="18" text-anchor="middle" font-family="monospace" font-weight="800" font-size="55" fill="#26173f">G</text></g><path d="M650 420 C600 410 575 395 540 375" stroke="#26173f" stroke-width="12" stroke-dasharray="12 15" fill="none"/></svg>