<svg xmlns="http://www.w3.org/2000/svg" width="1600" height="1000" viewBox="0 0 1600 1000">
<rect width="100%" height="100%" fill="#efe8ff"/><circle cx="250" cy="170" r="120" fill="#ff8cca" opacity=".7"/><circle cx="1380" cy="780" r="210" fill="#77e2b3" opacity=".3"/><path d="M0 820 C360 700 660 910 980 810 S1340 710 1600 785" fill="none" stroke="#26173f" stroke-width="4" stroke-dasharray="12 24" opacity=".35"/><g transform="translate(675 100) scale(0.86 0.86)">
    <defs><radialGradient id="blob" cx="34%" cy="28%"><stop offset="0" stop-color="#c8ffe7"/><stop offset=".55" stop-color="#77e2b3"/><stop offset="1" stop-color="#4dbb96"/></radialGradient></defs>
    <path d="M250 150 C340 72 490 88 552 170 C632 275 588 365 632 450 C678 540 607 650 492 676 C395 698 325 640 240 650 C135 663 68 573 94 474 C118 383 66 315 122 230 C156 178 202 188 250 150Z" fill="url(#blob)" stroke="#26173f" stroke-width="18"/>
    <circle cx="282" cy="318" r="20" fill="#26173f"/><circle cx="440" cy="306" r="20" fill="#26173f"/>
    <path d="M310 408 Q360 452 424 396" fill="none" stroke="#26173f" stroke-width="17" stroke-linecap="round"/>
    <ellipse cx="210" cy="228" rx="82" ry="42" fill="#fff" opacity=".18" transform="rotate(-28 210 228)"/>
    </g></svg>